<?xml version="1.0" standalone="no"?>
<!DOCTYPE svg PUBLIC "-//W3C//DTD SVG 20010904//EN"
 "http://www.w3.org/TR/2001/REC-SVG-20010904/DTD/svg10.dtd">
<svg version="1.0" xmlns="http://www.w3.org/2000/svg"
 width="700.000000pt" height="700.000000pt" viewBox="0 0 700.000000 700.000000"
 preserveAspectRatio="xMidYMid meet">
<metadata>
Created by potrace 1.14, written by Peter Selinger 2001-2017
</metadata>
<g transform="translate(0.000000,700.000000) scale(0.100000,-0.100000)"
fill="#000000" stroke="none">
<path d="M1585 5395 c-108 -25 -190 -89 -241 -186 -26 -49 -29 -63 -29 -154 1
-81 5 -109 23 -146 105 -221 393 -274 566 -103 115 113 137 297 51 434 -79
125 -229 188 -370 155z m150 -225 c18 -11 40 -38 50 -59 64 -142 -121 -267
-227 -153 -67 72 -48 176 40 221 43 22 92 19 137 -9z"/>
<path d="M3291 5374 c-107 -28 -192 -99 -238 -202 -20 -43 -26 -72 -27 -137 0
-72 3 -88 31 -146 42 -84 93 -135 173 -173 55 -25 76 -30 145 -30 95 0 167 28
237 93 202 185 119 513 -149 595 -43 13 -119 13 -172 0z m187 -248 c62 -69 41
-175 -43 -216 -72 -35 -150 -8 -184 64 -54 110 38 221 159 195 21 -5 48 -22
68 -43z"/>
<path d="M5128 5375 c-2 -1 -28 -5 -58 -8 -117 -13 -246 -68 -358 -152 -54
-40 -89 -78 -171 -181 -22 -27 -71 -136 -93 -204 -31 -99 -33 -320 -4 -415 76
-250 258 -439 501 -521 115 -39 286 -45 405 -15 226 57 406 199 505 399 84
171 103 383 49 557 -90 287 -339 499 -624 530 -83 9 -148 13 -152 10z m154
-219 c48 -9 142 -46 186 -75 226 -145 319 -437 215 -676 -90 -206 -286 -336
-504 -335 -147 1 -275 51 -383 149 -59 54 -129 175 -153 266 -3 11 -7 67 -9
125 -2 89 1 115 21 173 66 193 219 331 411 370 63 13 157 14 216 3z"/>
<path d="M1981 4764 c-30 -21 -51 -72 -44 -107 7 -34 -52 25 800 -805 l300
-293 -15 -42 c-32 -90 -18 -247 30 -340 l20 -40 -49 -46 c-27 -25 -96 -90
-154 -144 -57 -54 -109 -108 -116 -120 -36 -64 11 -143 89 -151 43 -5 48 0
285 226 45 43 87 78 92 78 6 0 28 -9 50 -21 172 -89 396 -53 543 88 l37 36 43
-21 c24 -11 124 -59 223 -107 99 -48 221 -107 271 -131 51 -24 104 -44 119
-44 64 0 113 59 101 123 -8 42 -34 66 -116 104 -36 17 -157 76 -270 131 -113
54 -221 106 -240 115 l-35 17 -1 112 c0 78 -5 126 -16 154 l-16 41 134 84 c74
46 185 116 248 154 149 93 182 119 193 152 33 93 -59 169 -147 122 -48 -26
-76 -43 -329 -201 -120 -76 -221 -138 -224 -138 -3 0 -28 15 -56 33 -28 19
-78 42 -111 52 -44 13 -60 23 -61 37 -1 10 -2 21 -3 26 -1 4 -6 50 -10 102 -4
52 -9 109 -11 125 -2 17 -6 62 -10 100 -3 39 -8 81 -10 95 -2 14 -6 66 -10
115 -7 99 -24 146 -58 164 -52 28 -122 8 -148 -41 -10 -19 -8 -151 5 -228 2
-14 7 -65 11 -115 4 -49 8 -103 10 -120 4 -28 9 -73 21 -201 l5 -51 -46 -18
c-25 -9 -69 -32 -97 -51 -49 -33 -51 -34 -71 -17 -32 29 -151 144 -487 473
-604 590 -560 550 -608 550 -21 0 -48 -7 -61 -16z m1582 -1130 c80 -28 135
-86 166 -173 40 -114 -19 -252 -134 -314 -58 -32 -184 -30 -240 2 -51 30 -88
69 -116 123 -31 59 -32 166 -2 223 65 125 201 182 326 139z"/>
<path d="M4889 2974 c-96 -25 -160 -68 -209 -138 -112 -164 -78 -368 83 -490
103 -78 278 -82 391 -9 59 38 95 81 129 153 71 147 20 335 -116 428 -81 56
-193 79 -278 56z m148 -224 c65 -39 86 -113 52 -181 -25 -50 -64 -73 -124 -73
-60 -1 -101 25 -126 81 -42 92 24 193 126 193 22 0 54 -9 72 -20z"/>
<path d="M2055 2847 c-288 -75 -486 -342 -479 -643 6 -277 178 -510 444 -604
90 -31 259 -39 350 -16 306 76 514 348 504 656 -14 420 -412 715 -819 607z
m290 -205 c153 -44 265 -161 304 -315 53 -207 -43 -412 -237 -505 -92 -44
-217 -55 -304 -28 -153 48 -253 145 -304 291 -25 73 -23 203 4 279 80 220 316
343 537 278z"/>
</g>
</svg>
